<svg width="49" height="49" viewBox="0 0 49 49" fill="none" xmlns="http://www.w3.org/2000/svg">
<rect width="49" height="49" rx="6" fill="#EFF6FF"/>
<path fill-rule="evenodd" clip-rule="evenodd" d="M24.5838 33.5635C26.5019 33.5676 28.049 34.1889 28.049 34.9385C28.049 35.698 26.4677 36.3123 24.5195 36.3123C22.5713 36.3123 20.9906 35.6957 20.9906 34.9385C20.9906 34.1901 22.5212 33.5781 24.4263 33.5641C24.4741 33.5635 24.5413 33.5635 24.5838 33.5635ZM17.7761 14.3116C17.6198 14.0639 17.3249 13.7266 17.3249 13.4361C17.3249 13.2721 17.4553 13.0578 17.6423 13.011C17.6275 12.765 17.6175 12.5161 17.6175 12.269C17.6175 12.1232 17.6204 11.9756 17.6263 11.831C17.634 11.7396 17.6511 11.6488 17.6753 11.5604C17.7901 11.1891 18.0404 10.8738 18.3772 10.6761C18.4963 10.6018 18.6255 10.5432 18.7576 10.4952C18.9982 10.4079 18.8821 10.005 19.1463 10.0004C19.7632 9.98395 20.7783 10.545 21.1735 10.9707C21.4259 11.2472 21.5696 11.6048 21.5781 11.978L21.5533 13.052C21.663 13.0783 21.7851 13.1632 21.8128 13.2727C21.8972 13.6112 21.5427 14.0329 21.3787 14.3022C21.2266 14.5511 20.6468 15.3557 20.6462 15.361C20.6438 15.3897 20.6586 15.4278 20.6981 15.4863C21.5232 16.6119 23.5911 16.0573 23.9704 17.8334H15.1662C15.5455 16.0555 17.6145 16.6119 18.4391 15.4863C18.4833 15.4219 18.5034 15.3868 18.5028 15.3581C18.5028 15.3429 17.8357 14.4059 17.7761 14.3116ZM32.0296 20.9829L29.0575 24.4403L28.2554 23.7575L31.2269 20.3L32.0296 20.9829ZM28.3857 25.2232L27.3353 26.446L26.5325 25.7632L27.583 24.5404L28.3857 25.2232ZM20.5884 32.8209V28.5284L14.0721 20.8523C13.8149 20.5349 13.6368 20.2046 13.5554 19.9001C13.4788 19.6137 13.4799 19.3338 13.5696 19.0855C13.6687 18.8102 13.8674 18.5895 14.1677 18.4501C14.3741 18.3541 14.6301 18.3002 14.935 18.2984L33.8115 18.2961C34.1524 18.2838 34.4538 18.3365 34.7027 18.4431C35.0041 18.5696 35.23 18.778 35.3662 19.0474C35.4972 19.3074 35.5349 19.6125 35.4665 19.9457C35.4028 20.2544 35.2441 20.5905 34.9799 20.9337L28.4512 28.5319V32.8221C28.1262 32.6739 27.7706 32.5433 27.3913 32.4338V28.3404L27.5199 27.999L34.1441 20.2901C34.3063 20.0781 34.3995 19.8901 34.4319 19.7343C34.452 19.6406 34.4473 19.5651 34.4219 19.5159C34.4019 19.4749 34.3541 19.4363 34.2851 19.407C34.1766 19.3584 34.0244 19.3373 33.8362 19.3461L14.9368 19.349C14.7935 19.3467 14.6861 19.366 14.6147 19.3994C14.5852 19.4128 14.5676 19.4275 14.5634 19.4386C14.5499 19.4773 14.5558 19.5446 14.5782 19.6289C14.623 19.7976 14.7333 19.9943 14.8949 20.1952L21.5221 28.0037L21.6483 28.3404V32.435C21.269 32.5439 20.9134 32.6733 20.5884 32.8209ZM27.639 14.3116C27.4822 14.0639 27.1878 13.7266 27.1878 13.4361C27.1878 13.2721 27.3182 13.0578 27.5052 13.011C27.4898 12.765 27.4804 12.5161 27.4804 12.269C27.4804 12.1232 27.4827 11.9756 27.4886 11.831C27.4963 11.7396 27.5134 11.6488 27.5382 11.5604C27.6525 11.1891 27.9027 10.8736 28.2395 10.6761C28.3586 10.6018 28.4913 10.5415 28.6199 10.4952C28.8594 10.4114 28.7444 10.005 29.0086 10.0004C29.6255 9.98395 30.6412 10.545 31.037 10.9707C31.2886 11.2477 31.4319 11.6051 31.441 11.978L31.4162 13.052C31.5253 13.0783 31.6498 13.1667 31.6751 13.2727C31.7565 13.6089 31.4056 14.0329 31.2416 14.3022C31.0901 14.5511 30.5085 15.3581 30.5085 15.361C30.5085 15.3891 30.5215 15.4278 30.561 15.4863C31.3861 16.6119 33.454 16.0573 33.8333 17.8334H25.0285C25.4078 16.0555 27.4768 16.6119 28.3014 15.4863C28.3456 15.4219 28.3651 15.3868 28.3651 15.3581C28.3651 15.3434 27.6986 14.4059 27.639 14.3116ZM26.0654 34.6562V35.1499L25.7699 35.1393C25.7581 35.3232 25.7381 35.4562 25.7115 35.5938L25.1388 35.4936V34.9771C25.1388 34.8969 25.1252 34.843 25.0981 34.8167C25.071 34.7909 24.9595 34.7763 24.8834 34.7739L24.8575 34.9906C24.8256 35.2553 24.7525 35.4368 24.6398 35.537C24.5266 35.6365 24.3803 35.6863 24.2004 35.6863C24.0205 35.6863 23.8176 35.6699 23.7103 35.6354C23.6029 35.6014 23.5198 35.5528 23.4649 35.4872C23.3682 35.3707 23.3133 35.2436 23.2992 35.0533L22.9258 35.0433V34.5432L23.2992 34.5567C23.3157 34.3388 23.3452 34.1819 23.3877 34.0296L23.9745 34.1298C23.9203 34.3207 23.8937 34.5204 23.8937 34.7294C23.8937 34.8167 23.8978 34.8981 23.9079 34.9736H24.1226L24.1491 34.7605C24.178 34.4841 24.2641 34.3008 24.4069 34.2088C24.5325 34.1286 24.6965 34.0888 24.8988 34.0888C25.1642 34.0888 25.4172 34.1397 25.5375 34.2416C25.6579 34.3441 25.7322 34.4606 25.7587 34.6463L26.0654 34.6562ZM24.5702 33.1067C26.9171 33.1114 28.814 34.1186 28.814 35.3431C28.814 36.5764 26.89 37.5784 24.5195 37.5784C22.1485 37.5784 20.2251 36.5764 20.2251 35.3431C20.2251 34.1175 22.1225 33.1161 24.4706 33.1067H24.5702ZM28.814 37.8337C28.814 41.2051 18.5264 40.3706 20.4067 37.1925C21.6217 39.3036 27.419 39.3007 28.6323 37.1925C28.7461 37.3887 28.814 37.6065 28.814 37.8337Z" fill="#086CFE"/>
</svg>
