<svg width="49" height="49" viewBox="0 0 49 49" fill="none" xmlns="http://www.w3.org/2000/svg">
<rect width="49" height="49" rx="6" fill="#EFF6FF"/>
<path d="M27.2426 11.0352H17.0815C16.4185 11.0352 15.8066 11.1501 15.2583 11.3793C14.7102 11.6088 14.2002 11.9531 13.741 12.4121C13.2821 12.871 12.9377 13.381 12.7083 13.9293C12.4788 14.4774 12.3642 15.0895 12.3642 15.7525V25.6712C12.3642 26.3342 12.4788 26.9461 12.7083 27.4944C12.9377 28.0427 13.2821 28.5524 13.741 29.0116C14.2126 29.4708 14.7228 29.8273 15.2709 30.0442C15.8192 30.2736 16.4185 30.3885 17.0815 30.3885H21.4418C21.952 30.3885 22.3725 30.8091 22.3725 31.319C22.3725 31.4339 22.347 31.5359 22.3215 31.6379C22.1557 32.2501 21.9772 32.862 21.7732 33.4482C21.5564 34.0733 21.3271 34.6595 21.0719 35.2335C20.9444 35.5266 20.7915 35.8068 20.6258 36.1004C21.5183 35.7049 22.3597 35.2461 23.1375 34.7359C23.9534 34.2005 24.7183 33.6014 25.4194 32.9511C26.1333 32.2882 26.7707 31.5614 27.3572 30.7836C27.5357 30.5417 27.8161 30.4142 28.0966 30.4142H31.845C32.5079 30.4142 33.1072 30.2994 33.6553 30.0699C34.2036 29.8404 34.7136 29.4961 35.1854 29.0374C35.6443 28.5782 35.9887 28.0685 36.2182 27.5202C36.4474 26.9718 36.5622 26.3597 36.5622 25.697V15.778C36.5622 15.115 36.4474 14.5031 36.2182 13.9548C35.9887 13.4065 35.6443 12.8968 35.1854 12.4376C34.7264 11.9784 34.2165 11.6343 33.6682 11.405C33.1198 11.1756 32.5082 11.0607 31.845 11.0607H27.2426V11.0352ZM25.4742 22.6839H23.0517V22.4221C23.0517 21.977 23.0974 21.6142 23.1911 21.3364C23.2849 21.0559 23.4238 20.8039 23.609 20.5732C23.7941 20.3423 24.2098 19.9372 24.8562 19.3578C25.2001 19.054 25.372 18.776 25.372 18.5237C25.372 18.2694 25.3023 18.074 25.1654 17.9326C25.026 17.7935 24.8169 17.7228 24.5364 17.7228C24.2336 17.7228 23.9854 17.8311 23.7878 18.0477C23.5896 18.2622 23.4636 18.6412 23.4087 19.1786L20.934 18.8464C21.0187 17.862 21.3495 17.0703 21.9243 16.4698C22.5012 15.8693 23.3849 15.5699 24.5753 15.5699C25.5024 15.5699 26.2491 15.7794 26.8191 16.1964C27.5922 16.7641 27.9793 17.5176 27.9793 18.4598C27.9793 18.8508 27.8793 19.2301 27.6789 19.5929C27.481 19.9554 27.0716 20.4008 26.4558 20.9236C26.0269 21.2934 25.7547 21.5878 25.6416 21.8116C25.5308 22.0336 25.4742 22.3255 25.4742 22.6839ZM22.967 23.3808H25.5636V25.4527H22.967V23.3808ZM21.6841 9.17388H31.845C32.7374 9.17388 33.579 9.33974 34.3695 9.65833C35.147 9.97693 35.8612 10.4616 36.4986 11.0991C37.1363 11.7365 37.6208 12.4504 37.9396 13.2282C38.2582 14.006 38.4238 14.8472 38.4238 15.7527V25.6712C38.4238 26.5768 38.258 27.4179 37.9396 28.1957C37.6208 28.973 37.1363 29.687 36.4986 30.3249C35.8612 30.9623 35.1473 31.4337 34.3695 31.7654C33.5919 32.0842 32.7503 32.2501 31.845 32.2501H28.5558C27.9822 32.9766 27.3574 33.6648 26.6945 34.2899C25.9041 35.0293 25.0626 35.6917 24.1574 36.2784C23.2521 36.8775 22.2832 37.4006 21.2504 37.8464C20.2305 38.2927 19.1341 38.6626 17.9867 38.9685C17.6553 39.0576 17.2983 38.9557 17.056 38.6878C16.7119 38.3056 16.75 37.7194 17.1324 37.3751C17.6679 36.9032 18.1268 36.4188 18.4967 35.9341C18.8536 35.4627 19.147 34.9778 19.3636 34.481V34.4681C19.6059 33.9327 19.8226 33.3843 20.0139 32.836C20.0778 32.6449 20.1414 32.4409 20.2053 32.237H17.0688C16.1764 32.237 15.335 32.0709 14.5443 31.7523C13.7665 31.4334 13.0526 30.9492 12.4152 30.3118C11.7777 29.6743 11.2933 28.9602 10.9744 28.1826C10.6558 27.3924 10.4902 26.551 10.4902 25.6586V15.7396C10.4902 14.8469 10.6558 14.0055 10.9747 13.2151C11.2935 12.4373 11.778 11.7234 12.4154 11.0859C13.0529 10.4485 13.7668 9.96406 14.5446 9.64522C15.3224 9.32638 16.1635 9.16101 17.0688 9.16101H21.6712L21.6841 9.17388Z" fill="#086CFE"/>
</svg>
