<svg width="49" height="49" viewBox="0 0 49 49" fill="none" xmlns="http://www.w3.org/2000/svg">
<rect width="49" height="49" rx="6" fill="#EFF6FF"/>
<path fill-rule="evenodd" clip-rule="evenodd" d="M18.8564 9.12512H30.0583C30.9082 9.12512 31.6877 9.4748 32.2438 10.0285C32.8072 10.5918 33.1471 11.3616 33.1471 12.214V35.8732C33.1471 36.7231 32.7975 37.5026 32.2438 38.0587C31.6804 38.6221 30.9106 38.962 30.0583 38.962H18.8564C18.0065 38.962 17.227 38.6123 16.6709 38.0587C16.1075 37.4953 15.7676 36.7255 15.7676 35.8732V12.214C15.7676 11.364 16.1173 10.5845 16.6709 10.0285C17.2367 9.46509 18.0065 9.12512 18.8564 9.12512ZM18.361 15.7545H30.5561V21.7039H18.361V15.7545ZM24.9952 31.1744H30.5585V32.3327H24.9952V31.1744ZM18.361 23.275H23.5188V25.6426H18.361V23.275ZM24.9952 23.2701H30.5585V25.6451H24.9952V23.2701ZM24.9127 27.2235H30.476V29.5984H24.9127V27.2235ZM18.4412 27.2259H23.5989V29.5935H18.4412V27.2259ZM18.361 31.1768H23.5188V32.3327H18.361V31.1768ZM24.4537 35.1665C25.1531 35.1665 25.7262 35.7299 25.7262 36.439C25.7262 37.1383 25.1628 37.7114 24.4537 37.7114C23.7544 37.7114 23.1813 37.1481 23.1813 36.439C23.1837 35.7396 23.7471 35.1665 24.4537 35.1665ZM16.6442 34.2001H32.2632V13.9162H16.6442V34.2001Z" fill="#086CFE"/>
</svg>
