<svg width="49" height="49" viewBox="0 0 49 49" fill="none" xmlns="http://www.w3.org/2000/svg">
<rect width="49" height="49" rx="6" fill="#EFF6FF"/>
<path d="M26.4213 32.8213L29.634 36.034C30.411 36.0558 31.0351 36.6945 31.0351 37.4788C31.0351 38.2777 30.3892 38.9237 29.5903 38.9237C28.7913 38.9237 28.1454 38.2753 28.1454 37.4788C28.1454 37.3914 28.1527 37.304 28.1673 37.219L25.3723 34.4264V36.4808H23.3713V34.4822L20.5326 37.3234C20.5374 37.3744 20.5399 37.4278 20.5399 37.4812C20.5399 38.2802 19.8939 38.9261 19.0926 38.9261C18.2937 38.9261 17.6477 38.2777 17.6477 37.4812C17.6477 36.6823 18.2961 36.0364 19.0926 36.0364C19.1169 36.0364 19.1412 36.0364 19.163 36.0388L22.3757 32.8261L9.53711 32.8213V14.4048C9.53711 14.3927 9.53711 14.383 9.53711 14.3708V12.416C9.53711 12.2047 9.71195 12.0348 9.92807 12.0348H23.3713V10.5899H25.3723V12.0348H38.9855C39.2016 12.0348 39.3764 12.2072 39.3764 12.416V14.3708C39.3764 14.3781 39.3764 14.383 39.3764 14.3902V32.8188H26.4213V32.8213ZM16.0669 25.818L21.7152 20.2959C23.1139 21.6947 24.4981 23.0788 25.9113 24.4751L29.6534 20.6869L27.9171 18.9506L32.8029 18.9069V23.834L31.1347 22.1658C29.396 23.9263 27.6646 25.682 25.9211 27.4279L21.686 23.2464L17.5482 27.2992L16.0669 25.818ZM37.1691 15.8667H11.7032V30.5921H37.1691V15.8667Z" fill="#086CFE"/>
</svg>
