<svg width="49" height="49" viewBox="0 0 49 49" fill="none" xmlns="http://www.w3.org/2000/svg">
<rect width="49" height="49" rx="6" fill="#EFF6FF"/>
<path d="M37.577 26.529C36.9967 29.613 35.3527 32.323 33.0434 34.2633C30.7194 36.2156 27.7277 37.3909 24.4641 37.3909C21.3971 37.3909 18.5681 36.354 16.3122 34.6105C14.0052 32.8305 12.3005 30.3124 11.5453 27.4081L13.2112 26.9758C13.8668 29.5037 15.353 31.6965 17.3612 33.2482C19.3233 34.7635 21.7856 35.6644 24.4616 35.6644C27.3101 35.6644 29.9181 34.6421 31.936 32.9471C33.8666 31.325 35.2628 29.0836 35.8165 26.5266H34.0365L36.7053 23.2751L39.374 26.5266H37.577V26.529ZM24.4203 27.4712V24.4237C23.347 24.1517 22.5627 23.7413 22.0649 23.1925C21.5646 22.6413 21.3121 21.9735 21.3121 21.1867C21.3121 20.3902 21.5962 19.72 22.162 19.1809C22.7278 18.6394 23.4806 18.3285 24.4203 18.246V17.5296H25.6199V18.246C26.499 18.3383 27.1959 18.6029 27.718 19.0376C28.2353 19.4723 28.5679 20.0551 28.7112 20.7836L26.6156 21.0216C26.4869 20.4485 26.1542 20.0599 25.6199 19.856V22.6995C26.9458 23.0128 27.8491 23.4232 28.3275 23.9234C28.8083 24.4261 29.0487 25.0696 29.0487 25.8564C29.0487 26.7354 28.7476 27.4736 28.143 28.0759C27.5383 28.6781 26.6981 29.0521 25.6199 29.2002V30.56H24.4203V29.2172C23.4733 29.1152 22.7059 28.8068 22.111 28.2871C21.5161 27.7675 21.1397 27.0317 20.9745 26.0822L23.1188 25.8588C23.2062 26.2473 23.3713 26.58 23.6141 26.8617C23.857 27.1434 24.1241 27.3449 24.4203 27.4712ZM24.4203 19.8293C24.0974 19.9312 23.8424 20.0988 23.6554 20.3319C23.466 20.565 23.3737 20.8224 23.3737 21.1041C23.3737 21.3615 23.4587 21.5995 23.6311 21.8205C23.8036 22.039 24.0682 22.2187 24.4228 22.3523V19.8293H24.4203ZM25.6199 27.5926C26.0328 27.5125 26.3727 27.3377 26.6301 27.0705C26.8924 26.801 27.0211 26.4853 27.0211 26.1186C27.0211 25.7957 26.9118 25.514 26.6908 25.2809C26.4747 25.0453 26.1178 24.8656 25.6175 24.7393V27.5926H25.6199ZM11.3486 21.5631C11.9242 18.5058 13.5439 15.8177 15.8192 13.8798C18.1504 11.8959 21.1688 10.6987 24.4616 10.6987C27.3586 10.6987 30.0395 11.6215 32.2274 13.1902C34.4736 14.8002 36.1978 17.0901 37.1035 19.7613L36.2876 20.0381L35.4717 20.3149C35.4498 20.2469 35.4255 20.1789 35.4013 20.1134C34.5975 17.8769 33.1235 15.9585 31.2245 14.5962C29.3207 13.2315 26.9871 12.4277 24.4641 12.4277C21.5889 12.4277 18.959 13.467 16.9338 15.1911C15.03 16.8108 13.658 19.0328 13.1068 21.5631H14.877L12.2058 24.8146L9.53711 21.5631H11.3486Z" fill="#086CFE"/>
</svg>
